Coordinates
version=1
nRows=65
nColumns=12
inDegrees=yes

Units are S.I. units (second, meters, Newtons, ...)
Angles are in degrees

endheader
time	SC_y	SC_z	SC_x	AC_y	AC_z	AC_x	GH_y	GH_z	GH_yy	EL_x	PS_y
       0.0              -42.69          8.462          40.83          58.85          7.449          6.659         -156.7          70.81          19.96          57.59          115.1
   0.02299              -42.69          8.466          40.83          58.85          7.448          6.658         -156.7          70.81          19.97           57.6          115.1
   0.04599              -42.69          8.471          40.82          58.84          7.448          6.658         -156.7           70.8          19.98           57.6          115.1
   0.06898              -42.68          8.476          40.81          58.84          7.448          6.658         -156.6          70.79          19.99           57.6          115.1
   0.09197              -42.68          8.481          40.81          58.84          7.448          6.657         -156.6          70.78           20.0          57.61          115.1
     0.115              -42.68          8.486           40.8          58.83          7.448          6.657         -156.6          70.77          20.01          57.61          115.1
     0.138              -42.67          8.492          40.79          58.83          7.448          6.656         -156.5          70.76          20.02          57.62          115.1
    0.1609              -42.67          8.498          40.78          58.82          7.448          6.656         -156.5          70.75          20.04          57.62          115.1
    0.1839              -42.66          8.505          40.78          58.82          7.447          6.655         -156.5          70.74          20.05          57.63          115.1
    0.2069              -42.66          8.512          40.77          58.82          7.447          6.655         -156.4          70.73          20.07          57.63          115.1
    0.2299              -42.66           8.52          40.76          58.81          7.447          6.654         -156.4          70.72          20.08          57.64          115.1
    0.2529              -42.65          8.528          40.75           58.8          7.447          6.654         -156.3          70.71           20.1          57.64          115.0
    0.2759              -42.64          8.537          40.73           58.8          7.446          6.653         -156.3          70.69          20.12          57.65          115.0
    0.2989              -42.64          8.546          40.72          58.79          7.446          6.652         -156.2          70.68          20.14          57.66          115.0
    0.3219              -42.63          8.557          40.71          58.78          7.446          6.651         -156.2          70.66          20.16          57.67          115.0
    0.3449              -42.62          8.568          40.69          58.78          7.446           6.65         -156.1          70.64          20.18          57.68          115.0
    0.3679              -42.62           8.58          40.68          58.77          7.445          6.649         -156.0          70.62          20.21          57.69          115.0
    0.3909              -42.61          8.594          40.66          58.76          7.445          6.648         -156.0           70.6          20.24           57.7          115.0
    0.4139               -42.6          8.608          40.64          58.75          7.444          6.647         -155.9          70.57          20.27          57.71          114.9
    0.4369              -42.59          8.624          40.62          58.74          7.444          6.646         -155.8          70.55           20.3          57.72          114.9
    0.4599              -42.58          8.642           40.6          58.73          7.444          6.644         -155.7          70.52          20.34          57.73          114.9
    0.4828              -42.56          8.661          40.57          58.71          7.443          6.643         -155.6          70.49          20.38          57.75          114.9
    0.5058              -42.55          8.682          40.55           58.7          7.442          6.641         -155.5          70.45          20.42          57.77          114.8
    0.5288              -42.54          8.706          40.52          58.68          7.442          6.639         -155.3          70.41          20.47          57.78          114.8
    0.5518              -42.52          8.732          40.48          58.67          7.441          6.637         -155.2          70.37          20.53           57.8          114.8
    0.5748               -42.5          8.762          40.45          58.65           7.44          6.635         -155.0          70.32          20.59          57.83          114.7
    0.5978              -42.48          8.794           40.4          58.62          7.439          6.632         -154.9          70.27          20.66          57.85          114.7
    0.6208              -42.46          8.831          40.36           58.6          7.438          6.629         -154.7          70.21          20.73          57.88          114.6
    0.6438              -42.43          8.873           40.3          58.57          7.437          6.626         -154.4          70.14          20.82          57.92          114.6
    0.6668               -42.4           8.92          40.24          58.54          7.436          6.622         -154.2          70.06          20.92          57.95          114.5
    0.6898              -42.36          8.975          40.17           58.5          7.434          6.618         -153.9          69.97          21.03           58.0          114.4
    0.7128              -42.32          9.037          40.09          58.46          7.432          6.613         -153.5          69.87          21.16          58.04          114.4
    0.7358              -42.28          9.108           40.0          58.41           7.43          6.607         -153.1          69.75          21.31           58.1          114.3
    0.7588              -42.23          9.192          39.89          58.35          7.428            6.6         -152.7          69.62          21.49          58.17          114.1
    0.7818              -42.16          9.289          39.77          58.29          7.425          6.592         -152.1          69.46          21.69          58.24          114.0
    0.8047              -42.09          9.404          39.62          58.21          7.422          6.583         -151.5          69.27          21.93          58.33          113.9
    0.8277               -42.0           9.54          39.44          58.12          7.418          6.572         -150.7          69.04          22.22          58.44          113.7
    0.8507               -41.9          9.704          39.23           58.0          7.414          6.559         -149.8          68.78          22.56          58.57          113.5
    0.8737              -41.77          9.902          38.98          57.87          7.408          6.543         -148.7          68.45          22.97          58.72          113.2
    0.8967              -41.62          10.14          38.67          57.71          7.401          6.523         -147.4          68.05          23.48          58.91          112.9
    0.9197              -41.43          10.44          38.28           57.5          7.393          6.499         -145.7          67.56           24.1          59.15          112.5
    0.9427              -41.19          10.81           37.8          57.25          7.383          6.469         -143.7          66.95          24.88          59.44          111.9
    0.9657              -40.89          11.28           37.2          56.93          7.369          6.432         -141.1          66.19          25.86          59.81          111.3
    0.9887              -40.51          11.88          36.43          56.53          7.353          6.384         -137.8          65.21           27.1          60.28          110.5
     1.012              -40.02          12.64          35.45          56.01          7.331          6.322         -133.6          63.96           28.7          60.88          109.5
     1.035              -39.39          13.62          34.19          55.34          7.304          6.243         -128.1          62.35          30.74          61.65          108.1
     1.058              -38.59          14.87          32.58          54.49          7.269          6.143         -121.2           60.3          33.36          62.63          106.5
     1.081              -37.59          16.44          30.56          53.42          7.225          6.016         -112.5          57.72          36.64          63.87          104.3
     1.104              -36.36          18.36          28.09          52.12          7.171          5.862         -101.9          54.58          40.65          65.37          101.7
     1.127              -34.94          20.58          25.23          50.61          7.109          5.683         -89.62          50.93          45.29          67.12          98.72
      1.15               -33.4          22.98          22.14          48.98          7.041          5.489         -76.31          46.99          50.32          69.01          95.46
     1.173              -31.86          25.39          19.04          47.34          6.974          5.295          -63.0          43.04          55.34           70.9          92.21
     1.196              -30.44          27.61          16.19          45.83          6.911          5.117          -50.7           39.4          59.98          72.64           89.2
     1.219              -29.22          29.52          13.72          44.53          6.857          4.962          -40.1          36.26          63.99          74.15           86.6
     1.242              -28.21          31.09           11.7          43.46          6.813          4.836         -31.39          33.68          67.27          75.38          84.48
     1.265              -27.41          32.34          10.09          42.61          6.778          4.735         -24.47          31.62          69.89          76.37          82.78
     1.288              -26.79          33.32          8.827          41.95          6.751          4.656         -19.05          30.02          71.93          77.13          81.46
     1.311               -26.3          34.09          7.845          41.43          6.729          4.595         -14.83          28.77          73.53          77.73          80.42
     1.334              -25.92          34.68          7.078          41.02          6.713          4.547         -11.53          27.79          74.77           78.2          79.62
     1.357              -25.62          35.15          6.475           40.7            6.7          4.509         -8.936          27.02          75.75          78.57          78.98
      1.38              -25.38          35.52          5.996          40.45          6.689          4.479         -6.876          26.41          76.53          78.86          78.48
     1.403              -25.19          35.82          5.612          40.25          6.681          4.455         -5.224          25.92          77.16           79.1          78.07
     1.426              -25.03          36.06            5.3          40.08          6.674          4.435         -3.886          25.52          77.66          79.29          77.75
     1.449              -24.91          36.26          5.046          39.95          6.668          4.419          -2.79           25.2          78.08          79.44          77.48
     1.472               -24.8          36.42          4.835          39.84          6.664          4.406         -1.884          24.93          78.42          79.57          77.26
